<?xml version="1.0" encoding="UTF-8" standalone="no"?>
<svg width="1200" height="800" xmlns="http://www.w3.org/2000/svg" viewBox="0 0 1200 800">
  <!-- Background gradient -->
  <defs>
    <linearGradient id="bg-gradient" x1="0%" y1="0%" x2="0%" y2="100%">
      <stop offset="0%" style="stop-color:#1e3c72;stop-opacity:1" />
      <stop offset="100%" style="stop-color:#2a5298;stop-opacity:1" />
    </linearGradient>
    
    <!-- Raindrop pattern -->
    <pattern id="raindrop-pattern" width="60" height="60" patternUnits="userSpaceOnUse">
      <path d="M30 5 Q40 30 30 45 Q20 30 30 5" fill="rgba(255,255,255,0.2)" />
    </pattern>
    
    <!-- Pipe pattern -->
    <pattern id="pipe-pattern" width="200" height="50" patternUnits="userSpaceOnUse">
      <rect x="0" y="20" width="200" height="10" fill="#333" rx="5" ry="5" />
      <circle cx="20" cy="25" r="3" fill="#555" />
      <circle cx="180" cy="25" r="3" fill="#555" />
    </pattern>
  </defs>
  
  <!-- Main background -->
  <rect width="100%" height="100%" fill="url(#bg-gradient)" />
  
  <!-- Raindrops -->
  <rect width="100%" height="100%" fill="url(#raindrop-pattern)" opacity="0.15" />
  
  <!-- Infrastructure elements - drain -->
  <path d="M400,600 L800,600 L780,650 L420,650 Z" fill="#444" />
  <rect x="500" y="605" width="20" height="40" fill="#333" />
  <rect x="550" y="605" width="20" height="40" fill="#333" />
  <rect x="600" y="605" width="20" height="40" fill="#333" />
  <rect x="650" y="605" width="20" height="40" fill="#333" />
  
  <!-- Circular runoff pattern -->
  <circle cx="600" cy="400" r="180" fill="none" stroke="rgba(255,255,255,0.2)" stroke-width="5" />
  <circle cx="600" cy="400" r="160" fill="none" stroke="rgba(255,255,255,0.15)" stroke-width="4" />
  <circle cx="600" cy="400" r="140" fill="none" stroke="rgba(255,255,255,0.1)" stroke-width="3" />
  
  <!-- Water flow lines -->
  <path d="M400,250 Q600,380 800,250" fill="none" stroke="rgba(124,214,253,0.3)" stroke-width="8" />
  <path d="M450,280 Q600,410 750,280" fill="none" stroke="rgba(124,214,253,0.2)" stroke-width="6" />
  <path d="M500,310 Q600,440 700,310" fill="none" stroke="rgba(124,214,253,0.1)" stroke-width="4" />
  
  <!-- Underground pipe -->
  <rect x="300" y="700" width="600" height="50" fill="url(#pipe-pattern)" />
  
  <!-- Water droplets - animated -->
  <g opacity="0.7">
    <circle cx="500" cy="200" r="6" fill="#7CD6FD">
      <animate attributeName="cy" from="200" to="600" dur="3s" repeatCount="indefinite" />
    </circle>
    <circle cx="550" cy="150" r="8" fill="#7CD6FD">
      <animate attributeName="cy" from="150" to="600" dur="2.5s" repeatCount="indefinite" />
    </circle>
    <circle cx="600" cy="180" r="5" fill="#7CD6FD">
      <animate attributeName="cy" from="180" to="600" dur="3.5s" repeatCount="indefinite" />
    </circle>
    <circle cx="650" cy="220" r="7" fill="#7CD6FD">
      <animate attributeName="cy" from="220" to="600" dur="4s" repeatCount="indefinite" />
    </circle>
    <circle cx="700" cy="190" r="6" fill="#7CD6FD">
      <animate attributeName="cy" from="190" to="600" dur="3.2s" repeatCount="indefinite" />
    </circle>
  </g>
  
  <!-- City skyline silhouette in background -->
  <path d="M0,450 L100,450 L120,400 L140,450 L160,420 L180,450 L200,390 L220,450 
            L250,430 L270,450 L300,380 L330,450 L350,440 L370,450 L400,420 
            L1200,420 L1200,800 L0,800 Z" 
        fill="#1a2c50" opacity="0.5" />
  
  <!-- Cloud shapes -->
  <path d="M180,180 Q230,120 280,180 Q320,150 360,180 Q420,140 460,180 Q480,150 520,180 L520,220 L180,220 Z" 
        fill="rgba(255,255,255,0.3)" />
  <path d="M680,150 Q730,90 780,150 Q820,120 860,150 Q920,110 960,150 Q980,120 1020,150 L1020,190 L680,190 Z" 
        fill="rgba(255,255,255,0.2)" />
</svg>